<svg width="1554" height="931" xmlns="http://www.w3.org/2000/svg" xmlns:xlink="http://www.w3.org/1999/xlink" version="1.1">
  <!-- <title>松阳</title> -->
  <g id="svg-map-sy">
    <defs>
      <polygon id="path-1" points="1264.17857 185.833887 1260.25255 182.930233 1209.21429 188.737542 1189.58418 182.930233 1181.73214 191.641196 1150.32398 191.641196 1130.69388 171.315615 1060.02551 171.315615 1048.24745 165.508306 1036.46939 148.086379 1040.39541 121.953488 1020.76531 110.33887 989.357143 107.435216 977.579082 101.627907 961.875 104.531561 934.392857 133.568106 922.614796 127.760797 918.688776 116.146179 875.502551 119.049834 863.72449 113.242525 820.538265 119.049834 804.834184 104.531561 804.834184 84.2059801 820.538265 46.4584718 804.834184 31.9401993 777.352041 23.2292359 742.017857 34.8438538 702.757653 23.2292359 683.127551 46.4584718 655.645408 34.8438538 620.311224 2.90365449 592.829082 0 569.272959 17.4219269 510.382653 34.8438538 490.752551 52.2657807 439.714286 81.3023256 420.084184 104.531561 341.563776 159.700997 321.933673 203.255814 294.451531 191.641196 286.59949 194.54485 294.451531 209.063123 286.59949 238.099668 219.857143 238.099668 208.079082 243.906977 176.670918 284.55814 172.744898 299.076412 192.375 316.498339 192.375 322.305648 168.818878 348.438538 164.892857 380.378738 172.744898 418.126246 149.188776 429.740864 133.484694 450.066445 157.040816 473.295681 149.188776 479.10299 149.188776 493.621262 141.336735 499.428571 106.002551 505.23588 90.2984694 531.368771 54.9642857 545.887043 35.3341837 566.212625 43.1862245 574.923588 43.1862245 580.730897 31.4081633 589.44186 31.4081633 609.767442 39.2602041 624.285714 35.3341837 659.129568 27.4821429 685.262458 0 723.009967 19.630102 749.142857 23.5561224 766.564784 78.5204082 818.830565 113.854592 827.541528 125.632653 824.637874 129.558673 815.92691 106.002551 763.66113 109.928571 754.950166 121.706633 749.142857 137.410714 746.239203 184.522959 752.046512 263.043367 772.372093 278.747449 778.179402 298.377551 795.601329 306.229592 830.445183 337.637755 865.289037 451.492347 847.86711 486.826531 868.192691 518.234694 874 561.420918 865.289037 569.272959 847.86711 592.829082 830.445183 600.681122 830.445183 639.941327 850.770764 624.237245 865.289037 632.089286 874 659.571429 850.770764 675.27551 850.770764 726.313776 874 769.5 874 777.352041 865.289037 785.204082 815.92691 800.908163 810.119601 851.946429 824.637874 867.65051 824.637874 883.354592 821.734219 895.132653 810.119601 946.170918 801.408638 1001.1352 815.92691 1063.95153 818.830565 1079.65561 804.312292 1075.72959 711.395349 1193.5102 708.491694 1260.25255 723.009967 1374.10714 699.780731 1487.96173 723.009967 1507.59184 714.299003 1535.07398 699.780731 1539 676.551495 1519.3699 595.249169 1495.81378 566.212625 1487.96173 522.657807 1476.18367 508.139535 1460.47959 464.584718 1495.81378 412.318937 1487.96173 374.571429 1476.18367 357.149502 1440.84949 328.112957 1378.03316 319.401993 1330.92092 319.401993 1319.14286 333.920266 1291.66071 339.727575 1291.66071 272.943522 1272.03061 252.61794 1283.80867 214.870432 1268.10459 188.737542"/>
      <filter x="-3.3%" y="-5.6%" width="106.5%" height="111.5%" filterUnits="objectBoundingBox" id="filter-2">
        <feGaussianBlur stdDeviation="38" in="SourceAlpha" result="shadowBlurInner1"></feGaussianBlur>
        <feOffset dx="0" dy="-10" in="shadowBlurInner1" result="shadowOffsetInner1"></feOffset>
        <feComposite in="shadowOffsetInner1" in2="SourceAlpha" operator="arithmetic" k2="-1" k3="1" result="shadowInnerInner1"></feComposite>
        <feColorMatrix values="0 0 0 0 0.224523628   0 0 0 0 0.750503696   0 0 0 0 1  0 0 0 0.5 0" type="matrix" in="shadowInnerInner1"></feColorMatrix>
      </filter>
      <linearGradient id="svg-zone-hover" x1="50%" y1="0%" x2="50%" y2="100%">
        <stop stop-color="#4AAEFF" offset="0%"/>
        <stop stop-color="#2476FF" offset="100%"/>
      </linearGradient>
    </defs>
    <g id="草稿纸" fill="none" fill-rule="evenodd">
      <g id="松阳大屏-行业驾驶舱-地图处理">
        <g id="松阳县">
          <path d="m145.41071,753.80969l47.11225,5.80532l78.52041,20.3186l15.70408,5.80531l19.6301,17.41595l7.85204,34.83189l31.40817,34.83189l113.85459,-17.41595l35.33418,20.31861l31.40816,5.80531l43.18623,-8.70797l7.85204,-17.41595l23.55612,-17.41594l7.85204,0l39.26021,20.3186l-15.70408,14.51329l7.85204,8.70797l27.48214,-23.22126l15.70408,0l51.03827,23.22126l43.18622,0l7.85204,-8.70797l7.85204,-49.34518l15.70408,-5.80531l51.03827,14.51328l15.70408,0l15.70408,-2.90266l11.77806,-11.61062l51.03827,-8.70798l54.96428,14.51329l62.81633,2.90266l13.69047,-12.65413l2.01361,47.61422l-15.70408,14.51329l-62.81633,-2.90266l-54.96428,-14.51329l-51.03827,8.70798l-11.77806,11.61063l-15.70408,2.90265l-15.70408,0l-51.03827,-14.51328l-15.70408,5.80531l-7.85204,49.34518l-7.85204,8.70797l-43.18622,0l-51.03827,-23.22126l-15.70408,0l-27.48214,23.22126l-7.85204,-8.70797l15.70408,-14.51329l-39.26021,-20.3186l-7.85204,0l-23.55612,17.41594l-7.85204,17.41595l-43.18623,8.70797l-31.40816,-5.80531l-35.33418,-20.31861l-113.85459,17.41595l-31.40817,-34.83189l-7.85204,-34.83189l-19.6301,-17.41595l-15.70408,-5.80531l-78.52041,-20.3186l-47.11225,-5.80532l-15.65171,2.89193l-15.75645,-34.94936l3.92602,-8.70798l11.77806,-5.80531l15.70408,-2.90266zm-119.11371,1.12831l1.3331,1.77435l3.92602,17.41594l54.96429,52.24784l33.79659,8.32887l17.24167,38.24185l-3.92602,8.70797l-11.77806,2.90266l-35.33418,-8.70797l-54.96429,-52.24784l-3.92602,-17.41594l-19.6301,-26.12392l18.297,-25.12381zm1355.81014,-47.57083l113.85459,23.22126l19.63011,-8.70797l25.34016,-13.38246l6.068,25.12129l-3.92602,23.22126l-27.48214,14.51329l-19.63011,8.70797l-113.85459,-23.22126l-113.85459,23.22126l-66.74235,-14.51328l-115.6922,2.85147l-2.08841,-49.4222l117.78061,-2.90265l66.74235,14.51328l113.85459,-23.22126zm-1335.93314,-65.83017l-2.83982,25.19297l-1.42718,4.74703l-2.49884,-4.61883l0,-20.3186l6.76584,-5.00257zm111.01478,-154.64359l0,14.38508l-7.85204,5.80532l-6.84274,1.12319l-1.00931,-0.99499l15.70409,-20.3186zm1338.72922,-55.21541l0.04373,0.06492l7.85205,37.73454l-23.69678,35.03954l-11.63741,-32.26508l27.43841,-40.57392zm-1319.202,-25.228l4.0289,19.3594l-6.8229,3.3626l2.794,-22.722zm22.387,-83.363l1.272,1.12939l0,5.80531l-17.899,19.8483l2.19492,-8.10946l14.43208,-18.67354zm1082.541,-67.9l10.16467,16.90976l-0.10767,0.34124l-11.67039,-12.08008l1.61339,-5.17092zm-467.976,-165.187l14.87027,13.74262l-6.94127,16.67738l-8.76282,-8.09761l0,-20.3186l0.83382,-2.00379z" id="形状结合" fill="#273C69" fill-rule="nonzero"/>
          <g id="路径" fill-rule="nonzero">
            <use fill-opacity="0.91641" fill="#254076" xlink:href="#path-1" y="7" x="8" id="svg_2"/>
            <use fill="black" filter="url(#filter-2)" xlink:href="#path-1" y="7" x="8" id="svg_3"/>
            <path stroke="#4AB8FF" stroke-width="6" d="m599.98359,3.89397l29.61453,3.12895l35.68258,32.25513l24.98073,10.55746l19.46907,-23.03867l40.2403,11.90457l35.36448,-11.62458l29.04371,9.20593l17.73355,16.39449l-16.27836,39.12788l0,18.4143l13.70374,12.66898l42.69307,-5.741l11.87494,5.85508l44.68545,-3.00445l4.26676,12.62263l8.67686,4.27823l26.6332,-28.13958l17.64453,-3.26244l12.17327,6.00217l31.52676,2.91462l21.9496,12.987l-4.05247,26.9746l10.6775,15.79401l10.43752,5.14634l71.24231,0l19.6301,20.32558l28.80012,0l8.2245,-9.12416l20.85886,6.17082l51.60608,-5.87192l4.87558,3.60595l4.40603,3.25867l16.70497,27.79843l-11.64917,37.33441l19.23642,19.91796l0,64.29603l22.82201,-4.82256l12.00891,-14.80284l48.74855,0l63.85994,8.85569l36.32487,29.85066l12.3534,18.27296l8.23067,39.56771l-35.19009,52.05264l15.01454,41.6424l11.94381,14.72259l7.85204,43.55481l23.49757,28.96436l19.93359,82.55932l-4.27536,25.29623l-28.88271,15.25817l-20.60061,9.14163l-114.1947,-23.29863l-113.87441,23.23328l-67.00845,-14.57616l-114.36847,2.81954l3.85574,91.25352l-17.64497,16.3126l-64.38883,-2.97634l-54.64369,-14.43359l-49.4667,8.44273l-11.76192,11.5987l-16.87991,3.12106l-16.39749,0l-50.49831,-14.36467l-13.13867,4.85863l-7.71584,48.5059l-9.34052,10.36227l-45.17152,0l-51.03826,-23.22924l-13.95547,0l-28.86288,24.3963l-11.78113,-13.06985l14.74061,-13.62756l-34.81545,-18.02447l-6.13266,0l-22.13163,16.36838l-8.16297,18.11182l-45.26389,9.13005l-32.48351,-6.00614l-34.86858,-20.05775l-114.41486,17.50766l-33.01692,-36.62858l-7.81219,-34.66702l-18.48547,-16.40605l-15.03299,-5.55914l-78.18377,-20.23844l-46.45912,-5.7268l-14.84138,2.74414l-10.43953,5.14733l-2.92796,6.49649l23.55612,52.26578l-5.08134,11.27437l-13.91336,3.43007l-36.82484,-9.07846l-56.20023,-53.44104l-3.98456,-17.68172l-20.57612,-27.39229l28.48723,-39.12803l7.62724,-25.38469l3.79038,-33.64008l-7.76553,-14.35831l0,-22.59744l11.77806,-8.71097l0,-3.1422l-8.95455,-9.93408l22.01123,-22.79107l34.99609,-14.37936l15.90719,-26.47088l35.98914,-5.91495l6.05346,-4.47709l0,-14.51827l6.24835,-4.62124l-22.95176,-22.63326l17.75396,-22.9787l22.09534,-10.89437l-7.47986,-35.95829l4.10196,-33.37153l23.41823,-25.97992l0,-3.30618l-20.0111,-17.76007l4.56723,-16.88944l32.1985,-41.67409l13.02812,-6.42366l65.14524,0l6.93982,-25.66318l-8.92711,-16.50606l12.20948,-4.51502l25.8774,10.93641l18.76391,-41.63293l78.87621,-55.41942l19.72448,-23.34092l51.22891,-29.14501l19.89487,-17.65692l59.02354,-17.46134l24.06909,-17.80131z" id="svg_4"/>
          </g>
          <g id="编组-2" stroke="#3F90C9">
            <path d="m144,499.52822c15.4182,20.80197 -9.42034,-15.01559 8.79402,37.03641c3.33725,9.53702 27.63118,53.25519 37.58385,62.31443c10.9909,10.00426 20.49005,22.38569 34.96862,28.31264c11.09731,4.5428 24.62485,1.95768 36.88745,1.10235c7.1879,-0.50136 14.74926,-8.49592 20.78855,-5.12529c7.58494,4.23329 2.68317,16.48546 9.20149,21.86327c13.95561,11.51379 33.3051,17.03529 49.30427,26.4057c1.83227,1.07313 2.15397,3.39999 3.7858,4.68816c1.7539,1.38453 4.81331,1.4528 6.14173,3.14866c2.83886,3.6241 3.21883,8.34867 5.80835,12.10684c1.32233,1.9191 3.5402,3.32245 5.68981,4.58046c1.17875,0.68983 5.47073,0.87549 4.07473,1.13402c-13.23565,2.45117 -62.80486,2.55985 -69.63349,12.37292c-16.72135,24.02941 2.113,2.15271 -6.72701,33.52664c-1.31223,4.6572 -7.3536,7.48273 -9.28298,11.98013c-4.01309,9.3545 -5.54164,19.35658 -8.31246,29.03487" id="路径-2"/>
            <path d="m367.21388,699.28156c15.86883,-0.34592 37.95912,-1.48272 53.74944,0.81726c11.35266,1.65361 35.59663,10.02086 49.98586,8.80613c5.70593,-0.48169 10.63143,-4.11235 16.33598,-4.60579c2.10374,-0.18198 3.38256,2.86763 5.48978,2.71786l14.87648,2.91425c9.55504,-0.67913 18.71029,-8.27007 27.90821,-5.95522c12.89153,3.24443 20.76599,14.65409 31.95332,21.02067c3.6921,2.10113 7.94751,4.53692 12.36496,4.20033c6.5633,-0.5001 11.87041,-5.06508 18.23258,-6.53174c19.99656,-4.60976 66.06733,-9.98669 83.8506,-9.1609c2.37068,0.11008 -22.23166,9.17913 -15.85441,13.25353c44.76928,28.60295 0.3052,-28.32369 48.76344,9.97183c3.02317,2.38915 -1.07542,7.72048 -4.31181,9.89581c-15.874,10.66966 -63.11492,21.48757 -39.36192,47.13495c2.96968,3.20652 7.36267,5.38194 10.02384,8.78078c2.98698,3.81495 7.7481,8.04046 6.66775,12.53764c-1.26194,5.25311 -9.52008,7.28836 -12.55759,11.98013c-4.24547,6.55761 -5.27531,14.33459 -8.89773,21.16005c-1.7434,3.28495 -6.11463,5.45484 -7.09004,8.96451c-0.42061,1.51341 1.99716,2.79915 3.63022,3.48444c1.54465,0.64819 3.43759,0.13515 5.15639,0.20273" id="路径-3"/>
            <path d="m387.77266,698.84106c11.32282,-6.39658 22.00718,-20.30137 34.76869,-24.24833c23.50282,-7.26908 49.23902,-7.82172 73.18221,-13.95042c8.44399,-2.1614 17.55654,-4.99939 23.27043,-10.7384c4.42633,-4.4458 0.00532,-12.66318 4.44517,-17.09909c11.70153,-11.69119 25.6667,1.89017 38.42843,-5.31536c7.0934,-4.00507 7.78723,-13.0505 13.18732,-18.66391c2.53376,-2.63386 6.26514,-6.52492 10.07571,-5.51809c7.55521,1.99624 11.50529,9.41922 18.21776,12.99379c2.04328,1.0881 6.66973,-1.47051 7.19375,0.5385c1.90623,7.30816 -9.48457,20.01494 -1.20019,22.43979l2.85972,5.41038c10.7549,3.14797 22.19144,4.78541 33.54617,5.24566c41.81883,1.69508 29.28407,-42.74832 38.34694,-62.14337c0.82928,-1.77471 4.87468,0.40567 6.64552,-0.76024c4.50047,-2.96309 6.34239,-13.51049 11.19441,-10.98549c1.87634,0.97646 22.09579,34.54358 37.25787,37.7143c11.14042,2.3297 22.45418,4.24183 33.87215,5.1633c38.36481,3.09619 19.64694,-28.14526 32.98311,-42.14903c5.16746,-5.42614 15.85591,-5.05259 24.00388,-4.40307c29.04606,2.31543 57.35561,9.16881 86.14727,13.18385c3.67608,0.51264 12.04121,3.48208 11.16477,0.38646c-1.51829,-5.36272 -10.01978,-7.04014 -14.23193,-11.21989c-6.76291,-6.7109 -13.1977,-13.73778 -18.55856,-21.31843c-17.40215,-24.60791 -0.6375,-31.76487 16.40266,-52.31092c4.55153,-5.48798 3.54329,-16.81454 11.34257,-17.70095c6.47522,-0.73592 3.6939,10.8652 7.16412,15.59761c3.01541,4.11217 41,60.11449 65.04015,71.06354c9.69396,4.4151 23.32159,2.1143 31.43472,8.44501c9.69208,7.56277 11.45373,20.20297 17.83992,30.00418c2.19863,3.37435 7.19345,5.61923 7.86053,9.43966c1.08808,6.23149 -0.34846,12.83604 -2.94121,18.73361c-3.80049,8.64473 -25.95748,20.75869 -15.90628,24.13765c28.14062,9.46018 60.93953,-3.54847 90.70356,1.00732c5.58934,0.85553 5.71767,8.88609 5.65277,13.74136c-0.07101,5.31221 -4.50582,9.92967 -6.03802,15.07812c-3.12783,10.51003 -5.27986,21.21495 -7.9198,31.82242" id="路径-4"/>
            <path d="m927.71937,502.02434c32.66932,-1.0882 76.34075,2.75751 98.46037,-24.01094c20.13162,-24.36266 -26.3769,0.85643 14.17266,-25.62013c19.4053,-12.67056 41.12424,-22.53095 61.2099,-34.40091c2.5858,-1.52812 4.70725,-3.60215 6.66034,-5.70814c38.88596,-41.93013 -45.63465,46.16764 9.1274,-38.75329c5.17684,-8.02786 17.44558,-10.80678 27.05623,-14.86905c18.89815,-7.98794 35.8761,-2.65264 56.79437,-5.31535c26.62065,-3.38858 52.80004,-8.97272 79.07205,-13.96943c19.93661,-3.79177 15.50869,-6.98101 18.766,10.58636c1.3353,7.20153 12.37845,30.31223 14.56532,34.45159c3.96087,7.49723 8.13788,14.93338 12.95765,22.05332c10.46454,15.45863 37.87682,22.86423 38.98681,43.21337c0.16751,3.12857 -7.67236,1.97379 -9.5376,4.66915c-2.13771,3.08908 -1.15273,7.13642 -1.1187,10.72574c0.21172,22.33301 15.35048,28.51043 7.80867,52.43129c-7.42421,23.54784 -36.80525,28.5644 -52.18622,47.10961c-4.03445,4.86443 -3.34731,12.60329 -8.92737,16.18046c-21.50621,13.78681 -50.55384,5.40529 -71.52268,20.1654c-17.15473,12.07532 -22.51433,41.23968 -25.62637,59.05806c-1.04119,5.96146 2.56126,12.93433 -1.15574,18.05572c-4.20694,5.79644 -14.35919,6.39256 -20.0551,11.16921c-8.06795,6.76589 -7.28861,25.55809 -7.96425,31.77174" id="路径-5"/>
            <path d="m1362.72306,446.14029c12.26866,-0.54062 25.05442,-4.68376 36.80596,-1.62185c30.55345,7.96084 41.91574,29.69198 69.52235,26.78583c1.10413,-0.11623 1.96575,-0.89117 2.94863,-1.33676" id="路径-6"/>
            <path d="m191.6077,331.6163c23.47494,-9.62074 85.99747,-37.7873 109.45474,-33.89408c10.33591,1.71546 -1.46198,17.9975 -1.07425,26.9949c0.39457,9.15587 -5.00238,21.66247 3.41537,27.33066c9.74822,6.56407 46.6163,-3.9042 57.65377,-8.03321c5.84975,-2.18833 17.87683,-13.46071 16.64714,-8.1029c-9.25296,40.31547 -60.60666,69.14587 -19.12161,115.17652c22.59254,25.06805 60.77699,-13.12412 92.00007,22.1927c7.84048,8.86848 2.135,22.20762 4.6526,33.11484c2.07607,8.99432 8.98616,4.44714 16.53601,8.02054c10.96471,5.18969 28.44046,28.44209 32.49414,34.66066c3.43967,5.27664 1.70583,15.06294 8.54213,16.58593c21.6635,4.82619 44.79226,-0.52741 67.15901,0.27875c11.60277,0.4182 23.25089,1.33609 34.613,3.38941c2.48539,0.44915 4.20087,2.47273 6.05283,3.95959c4.58451,3.68071 9.59636,7.11461 13.21696,11.51132c1.37872,1.67425 1.34964,4.0045 1.24464,6.05025c-0.32304,6.2943 0.13013,12.89892 -2.51892,18.77795c-3.46766,7.69577 -12.17121,8.29209 -19.60317,10.06053" id="路径-7"/>
            <path d="m444.32265,91c210.36704,70.54919 96.5162,19.26845 196.83184,78.74197c4.315,2.5582 9.65354,3.74905 13.78001,6.5254c5.91367,3.97881 15.53532,7.13928 16.06927,13.55764c2.95821,35.55932 -74.29731,53.60045 -87.88089,60.42649c-11.69319,5.87609 -19.9996,20.25715 -33.54616,19.69025c-8.8794,-0.37159 -2.59879,-16.18986 -8.99405,-21.47048c-14.27636,-11.78813 -48.02519,-2.26192 -58.18719,7.46937c-3.30225,3.16228 6.91601,16.39745 7.89016,17.15611c5.10027,3.97202 40.7217,18.24355 35.47241,34.28687c-1.7131,5.23571 -10.03795,6.7607 -14.2912,10.80176c-5.58807,5.30928 -8.4306,18.7082 -9.25335,23.68151c-0.48339,2.92195 -2.02302,6.80068 0.46674,8.84414c11.85541,9.73025 19.23955,3.00498 31.14578,0.66521c27.23641,-5.35241 40.77658,-1.75163 67.14799,-9.63642c-10.92945,9.21486 3.01806,4.48522 -0.38163,15.43325c-0.80769,2.60099 0.15203,5.57785 -1.2002,8.00788c-4.64123,8.34054 -17.39806,11.62277 -24.44099,17.02306c-14.54836,11.15521 -3.84943,30.54351 8.17169,38.98137c8.89435,6.2431 21.85627,7.13719 30.80499,13.32322c2.01835,1.39524 -0.01294,5.38021 -2.34853,6.34801c-33.06497,13.70118 -15.24015,-1.21008 -39.49528,14.72334c-2.57143,1.6892 -5.48544,3.49136 -8.71993,3.68717c-48.3201,2.92515 -62.24703,-8.88882 -94.45972,10.9348c-18.00542,11.08049 4.07946,28.43753 -7.11967,41.59152" id="路径-8"/>
            <path d="m478.86157,523.48215c8.56209,-8.11335 26.41415,-29.25879 44.34051,-18.56889c4.94446,2.9485 6.91919,9.77634 12.79466,10.92846c12.59998,2.47074 25.89779,0.20653 38.76924,-0.81725c31.03071,-2.46817 46.82087,-24.5736 72.81918,-36.59294c25.00485,-11.56005 38.56041,-1.24414 59.21699,14.736c1.85269,1.43326 0.72483,4.26667 1.64471,6.25299c2.28883,4.94234 4.23344,10.16103 7.93462,14.43191c1.22103,1.40898 5.40257,-0.183 5.88984,1.52048l8.31245,-0.57018c2.21224,7.73399 -3.02949,36.61959 6.82333,48.21829c14.4101,16.96351 62.94313,-7.32609 62.94313,19.0452" id="路径-9"/>
            <path d="m599.92627,364.3245c82.07373,25.1755 21.91485,-9.69476 56.57373,34.6755c13.25038,16.96313 52.10757,9.83801 63.93398,10.66772c2.0411,0.1432 3.46831,2.37245 3.85248,4.09263c1.81342,8.11982 2.27002,16.43914 2.57819,24.7015c0.90463,24.25394 -12.86583,31.93618 -32.50155,48.76313" id="路径-10"/>
            <path d="m981.39478,498.94702c-1.64965,-8.04377 -1.24269,-13.46292 -4.63044,-21.09834c-26.69764,-60.17197 -127.97217,-61.0888 -184.26685,-74.89642c-4.87834,-1.19653 -7.39377,-6.2793 -12.03666,-8.03173c-28.93922,-10.92291 -44.12604,-5.43968 -57.62826,15.29801" id="路径-11"/>
            <path d="m601.96621,340.86755c5.77367,-8.88202 21.00796,-31.93721 39.32905,-29.6067c8.75165,1.11324 16.69373,5.46227 25.47819,6.36702c18.68033,1.92395 30.41335,-20.37018 49.22655,-20.12787c2.88464,0.03715 22.79301,11.41116 25,13c2.57106,1.85094 1.64961,11.86821 3,14.5c2.81124,5.47888 -2.01071,11.68566 -0.00665,17.41806c9.55625,27.33467 -24.52681,14.5119 -34.65746,29.54804c-11.4242,16.95606 11.94368,10.18868 7.62346,25.90521c-1.70391,6.19865 -8.23989,7.4479 -12.99622,12.34723" id="路径-12"/>
            <path d="m740.91137,343.76749c23.66556,-8.78923 50.66022,-12.78941 70.99667,-26.36769c17.41761,-11.62944 13.36591,-40.39183 34.90935,-50.73976c2.76481,-1.32802 2.25715,5.13958 4.12659,7.32999c2.16388,2.5354 4.90069,4.72225 7.80126,6.64577c1.14994,0.76259 2.65696,1.28288 4.11178,1.2544c4.28378,-0.08384 8.60942,-0.55102 12.72058,-1.58383c59.91949,-15.05312 70.15085,-23.45927 129.78395,-8.68576c8.06529,1.99809 -17.53935,20.14264 -18.45483,20.71024c-79.63195,49.3711 -73.56517,46.9041 -76.64203,52.06384c-0.5906,0.9904 -1.55944,3.56184 -0.28893,3.32605c11.88195,-2.20512 22.92706,-6.99421 34.66486,-9.70574c25.41449,-5.87097 23.81025,14.53874 49.76361,25.34771c11.88828,4.95119 27.34279,1.14884 38.90259,6.63943c15.61243,7.41548 11.30161,36.64659 5.40828,47.44538c-4.6087,8.44486 -22.59804,21.78126 -17.1287,34.2742c1.63822,3.74199 8.68783,2.94383 13.03174,4.41574" id="路径-13"/>
            <path d="m976.83842,268.00313c40.38442,-39.23321 58.67417,-27.2616 117.61903,-34.40091c0.40679,-0.04927 62.8489,-4.58741 67.75911,-21.027c1.46216,-4.89538 0.42476,-10.09853 0.63714,-15.1478" id="路径-14"/>
            <path d="m832.62991,133.82058c-26.10458,45.12637 -14.86612,38.75934 -10.38686,92.57202c0.34209,4.10985 1.07718,8.5067 -0.66678,12.34758c-1.57228,3.46278 -9.5828,4.65494 -8.70511,8.29297c3.76546,15.6079 25.99121,-2.94445 35.16124,19.49385" id="路径-15"/>
            <path d="m647.86482,172.5894c9.2906,-7.62838 39.56126,-36.44831 57.02591,-30.72927c5.45192,1.7853 2.37479,9.7978 4.20068,14.53961c1.1953,3.1042 1.0592,8.32755 4.823,8.89482c17.79045,2.68131 36.65064,-3.68442 54.19395,0c5.5417,1.16386 -6.6376,29.49836 -8.19392,32.14553c-15.15383,25.77547 2.19132,0.71245 -18.91444,28.55991c-2.27772,3.00528 -2.64621,9.49395 -3.5,13c-0.79048,3.24605 -4.25607,7.03861 -6,10c-3.84334,6.52641 -5.0692,16.30758 -8.5,23c-2.80881,5.47911 -3.99272,29.18929 -9.5,25.5c-17.9657,-12.0351 -18.86631,-20.91342 -28.5,-34.5c-10.07942,-14.2152 -7.43694,-23.39293 -18.46362,-29.59417c-4.18016,-2.35086 1.67209,-9.26367 -1.14834,-12.7974c-7.12112,-8.92207 -10.22903,5.75547 -8.85348,-3.65479" id="路径-16"/>
            <path d="m696.06708,140.5994c37.11488,-9.23543 40.32455,-11.43542 89.42187,-13.00013c13.71899,-0.43721 27.31739,3.13215 41.04368,2.9206c3.11099,-0.04795 8.33156,-6.34126 8.28316,-3.68084c-0.07833,4.25658 -5.60619,7.03646 -8.40911,10.55468" id="路径-17"/>
          </g>
        </g>
      </g>
    </g>
    <!-- <title>anminxiang</title> -->
    <g id="svg-zone-anmin" fill="rgba(61, 175, 255, 0)" fill-rule="nonzero" cursor="pointer">
      <path d="m658.49839,854.57375c0.581,-2.092 2.267,-3.713 3.897,-5.28c1.229,-1.183 2.501,-2.406 3.233,-3.785c1.595,-3.005 2.706,-6.268 3.78,-9.423c1.353,-3.976 2.752,-8.086 5.14,-11.775c1.387,-2.141 3.787,-3.733 6.11,-5.272c2.94,-1.949 5.717,-3.79 6.381,-6.553c0.815,-3.394 -1.999,-6.69 -4.72,-9.878c-0.648,-0.76 -1.284,-1.505 -1.855,-2.234c-1.413,-1.805 -3.39,-3.302 -5.301,-4.749c-1.631,-1.236 -3.318,-2.512 -4.696,-4c-5.277,-5.697 -7.447,-11.144 -6.449,-16.188c2.112,-10.681 17.549,-17.823 31.168,-24.125c5.703,-2.637 11.088,-5.129 14.73,-7.577c2.405,-1.616 5.056,-4.81 5.14844,-7.153c0.02956,-0.818 -0.25344,-1.451 -0.86744,-1.936c-13.114,-10.364 -20.5,-14.638 -23.246,-13.459c-1.362,0.587 -1.549,2.681 -1.747,4.897c-0.23,2.57 -0.49,5.483 -2.792,6.614c-3.248,1.598 -9.903,-0.943 -20.937,-7.995c-0.901,-0.575 -1.334,-1.29 -1.287,-2.126c0.167,-3.001 6.861,-6.538 13.704,-9.904c0.856,-0.421 1.727,-0.85 2.384,-1.194c-18.985,-0.533 -63.19,4.766 -82.416,9.198c-2.718,0.626 -5.303,1.86 -7.803,3.053c-3.298,1.573 -6.707,3.2 -10.504,3.49c-4.549,0.337 -8.822,-2.086 -12.594,-4.232c-4.428,-2.52 -8.339,-5.806 -12.122,-8.983c-5.887,-4.946 -11.975,-10.06 -19.762,-12.019c-5.221,-1.317 -10.391,0.643 -15.866,2.714c-3.854,1.458 -7.839,2.967 -11.885,3.255l-0.066,0.005l-0.066,-0.014l-14.814,-2.902c-1.22,0.071 -2.179,-0.763 -3.027,-1.486c-0.791,-0.673 -1.545,-1.316 -2.386,-1.237c-2.776,0.24 -5.439,1.273 -8.015,2.271c-2.651,1.026 -5.392,2.088 -8.322,2.336c-9.72,0.821 -24.02,-2.725 -35.508,-5.574c-5.832,-1.445 -10.868,-2.694 -14.592,-3.236c-16.837,-2.453 -39.921,-3.235 -54.252,-2.923c-3.84,0.655 -10.292,1.148 -17.725,1.713c-19.559,1.488 -46.346,3.526 -51.108,10.37c-8.13,11.683 -7.616,12.177 -6.376,13.37c1.678,1.614 4.214,4.055 -0.28,20.007c-0.735,2.606 -2.855,4.648 -4.906,6.623c-1.738,1.674 -3.535,3.404 -4.399,5.419c-2.659,6.197 -4.251,12.81 -5.791,19.204c-0.497,2.064 -1.02,4.167 -1.565,6.27l12.259,4.533l19.63,17.422l7.852,34.844l31.408,34.843l113.854,-17.422l35.335,20.326l31.408,5.807l43.186,-8.711l7.852,-17.422l23.556,-17.421l7.852,0l39.261,20.325l-15.705,14.518l7.853,8.711l23.279,-19.678c-0.199,-0.05 -0.396,-0.112 -0.59,-0.193c-2.96,-1.242 -4.314,-2.653 -3.918,-4.079" id="svg_175"/>
    </g>
    <!-- <title>chishouxiang</title> -->
    <g id="svg-zone-chishou" fill="rgba(61, 175, 255, 0)" fill-rule="nonzero" cursor="pointer">
      <path d="m595.57601,138.49319c6.27,4.358 17.941,12.471 44.916,28.463c1.96,1.162 4.189,2.059 6.345,2.927c0.044,0.017 0.089,0.036 0.133,0.054c1.085,-0.899 2.448,-2.073 4.023,-3.433c9.923,-8.566 28.343,-24.462 43.34,-28.133l-0.018,-0.074c5.958,-1.482 11.136,-2.828 15.706,-4.015c24.268,-6.307 34.313,-8.918 75.582,-10.233c7.097,-0.23 14.256,0.626 21.182,1.449c6.507,0.774 13.225,1.568 19.869,1.472c1.389,-0.022 3.555,-1.982 5.138,-3.414c0.513,-0.463 0.939,-0.843 1.312,-1.153l-4.437,0.596l-15.704,-14.518l0,-20.325l15.704,-37.748l-15.704,-14.518l-27.482,-8.711l-35.334,11.614l-39.26,-11.614l-19.63,23.229l-27.482,-11.615l-35.335,-31.94l-27.482,-2.903l-23.556,17.421l-58.89,17.422l-19.63,17.422l-51.038,29.037l-2.866,3.391c79.742,26.721 112.286,35.728 127.97,40.069c14.217,3.935 14.217,3.935 22.628,9.781" id="svg_165"/>
    </g>
    <!-- <title>fengpingxiang</title> -->
    <g id="svg-zone-fengping" fill="rgba(61, 175, 255, 0)" fill-rule="nonzero" cursor="pointer">
      <path id="svg_164" d="m281.73825,751.79454c0.944,-2.2 2.815,-4.002 4.624,-5.744c2.045,-1.97 3.977,-3.83 4.637,-6.175c4.332,-15.375 1.964,-17.653 0.55,-19.015c-1.878,-1.806 -2.027,-2.769 6.248,-14.661c5.033,-7.234 32.094,-9.293 51.854,-10.797c6.297,-0.479 11.893,-0.905 15.759,-1.419c-0.754,-0.144 -1.469,-0.324 -1.896,-0.574c-2.197,-1.285 -4.458,-2.709 -5.849,-4.728c-1.26,-1.827 -2.013,-3.881 -2.741,-5.867c-0.823,-2.246 -1.601,-4.366 -3.05,-6.215c-0.649,-0.829 -1.828,-1.235 -3.077,-1.664c-1.051,-0.362 -2.138,-0.735 -2.981,-1.401c-0.826,-0.652 -1.331,-1.52 -1.819,-2.359c-0.532,-0.914 -1.035,-1.778 -1.909,-2.29c-6.199,-3.63 -13.022,-6.736 -19.621,-9.739c-10.407,-4.736 -21.168,-9.633 -29.749,-16.712c-3.26,-2.69 -3.791,-6.957 -4.304,-11.084c-0.552,-4.442 -1.074,-8.636 -4.823,-10.729c-3.35,-1.87 -7.299,0.042 -11.479,2.068c-2.953,1.43 -6.005,2.909 -9.031,3.12c-2.314,0.161 -4.727,0.389 -7.06,0.61c-10.295,0.973 -20.941,1.98 -30.052,-1.749c-10.91,-4.467 -19.078,-12.628 -26.977,-20.521c-2.639,-2.636 -5.368,-5.363 -8.138,-7.884c-10.051,-9.149 -34.464,-53.216 -37.72,-62.52c-7.792,-22.266 -7.49,-27.938 -6.653,-29.698l-31.666,5.205l-15.704,26.133l-35.334,14.517l-19.631,20.327l7.852,8.711l0,5.806l-11.778,8.711l0,20.326l7.852,14.519l-3.926,34.844l-7.852,26.132l-27.482,37.747l19.63,26.133l3.926,17.422l54.965,52.266l35.334,8.711l11.778,-2.904l3.926,-8.711l-23.556,-52.265l3.926,-8.711l11.778,-5.808l15.704,-2.903l47.112,5.808l78.521,20.325l2.503,0.926c0.534,-2.063 1.047,-4.128 1.535,-6.156c1.55,-6.434 3.152,-13.089 5.844,-19.364"/>
    </g>
    <!-- <title>dadongbazhen</title> -->
    <g id="svg-zone-dadong" fill="rgba(61, 175, 255, 0)" fill-rule="nonzero" cursor="pointer">
      <path d="m1121.94339,688.06497c0.632,-2.122 1.747,-4.161 2.826,-6.134c1.62,-2.961 3.151,-5.758 3.19898,-8.808c0.07402,-6.14 -0.48298,-12.514 -5.23598,-13.242c-13.024,-1.993 -26.858,-0.585 -40.235,0.778c-17.051,1.735 -34.681,3.53 -50.552,-1.805c-1.671,-0.561 -2.639,-1.419 -2.876,-2.548c-0.611,-2.908 3.721,-6.852 8.736,-11.419c4.082,-3.717 8.303,-7.559 9.747,-10.845c2.001,-4.551 4.129,-11.445 2.908,-18.447c-0.371,-2.119 -2.218,-3.746 -4.173,-5.469c-1.326,-1.168 -2.698,-2.376 -3.615,-3.785c-2.362,-3.625 -4.117,-7.677 -5.813,-11.597c-2.888,-6.672 -5.874,-13.571 -11.916,-18.284c-4.468,-3.487 -10.579,-4.284 -17.051,-5.126c-4.91,-0.64 -9.988,-1.302 -14.283,-3.258c-14.555,-6.629 -36.644,-30.596 -63.879,-69.309c-0.657,-0.934 -1.118,-1.589 -1.357,-1.915c-1.452,-1.98 -1.852,-4.992 -2.239,-7.905c-0.651,-4.903 -1.288,-7.859 -4.465,-7.49c-4.518,0.512 -5.897,4.865 -7.358,9.473c-0.918,2.897 -1.867,5.891 -3.657,8.049c-3.363,4.055 -6.776,7.655 -9.789,10.831c-12.679,13.37 -20.332,21.441 -6.59,40.872c4.68,6.617 10.559,13.37 18.503,21.253c1.602,1.59 3.912,2.843 6.146,4.055c3.557,1.928 7.235,3.923 8.214,7.384c0.213,0.752 -0.028,1.209 -0.267,1.459c-1.005,1.052 -3.799,0.492 -7.947,-0.482c-1.324,-0.31 -2.574,-0.604 -3.501,-0.733c-11.098,-1.548 -22.303,-3.549 -33.14,-5.484c-17.277,-3.085 -35.143,-6.275 -52.978,-7.697c-8.986,-0.716 -18.821,-0.771 -23.601,4.25c-4.659,4.892 -5.318,12.075 -5.954,19.022c-1.141,12.442 -2.328,25.315 -27.432,23.28c-10.223,-0.824 -21.005,-2.468 -33.935,-5.172c-11.835,-2.475 -26.526,-22.929 -33.587,-32.758c-1.76,-2.45 -3.422,-4.765 -3.805,-5.006c-2.312,-1.204 -3.822,1.056 -6.035,4.918c-1.35,2.358 -2.747,4.794 -4.647,6.046c-0.976,0.643 -2.373,0.453 -3.723,0.27c-1.483,-0.203 -2.476,-0.292 -2.745,0.284c-2.596,5.556 -3.398,13.219 -4.247,21.331c-2.076,19.838 -4.42,42.309 -34.572,41.1c-12.075,-0.489 -23.402,-2.26 -33.667,-5.266l-0.203,-0.059l-2.862,-5.414c-1.32,-0.428 -2.243,-1.157 -2.746,-2.167c-1.22,-2.454 0.184,-6.151 1.67,-10.065c1.422,-3.741 2.891,-7.611 2.138,-10.498c-0.159,-0.607 -1.241,-0.463 -2.872,-0.176c-1.472,0.26 -2.994,0.528 -4.073,-0.048c-2.894,-1.541 -5.293,-3.79 -7.613,-5.966c-3.217,-3.015 -6.255,-5.864 -10.497,-6.985c-3.515,-0.922 -7.159,2.856 -9.569,5.361c-2.225,2.314 -3.663,5.269 -5.053,8.126c-1.971,4.052 -4.009,8.241 -8.268,10.647c-5.93,3.348 -12.104,2.326 -18.074,1.337c-7.212,-1.194 -14.024,-2.322 -20.247,3.896c-2.075,2.073 -2.078,5.049 -2.081,8.2c-0.003,3.211 -0.006,6.532 -2.363,8.899c-5.699,5.723 -14.663,8.607 -23.501,10.87c-10.878,2.784 -22.296,4.445 -33.338,6.052c-13.277,1.931 -27.007,3.928 -39.82,7.891c-7.451,2.305 -13.68,7.671 -19.705,12.862c-3.744,3.224 -7.604,6.542 -11.726,9.095c10.196,0.45 20.857,1.278 29.777,2.576c3.772,0.55 8.831,1.804 14.688,3.256c11.417,2.832 25.629,6.356 35.184,5.548c2.786,-0.235 5.459,-1.271 8.044,-2.272c2.641,-1.024 5.372,-2.081 8.291,-2.334c1.254,-0.115 2.25,0.731 3.12,1.472c0.787,0.671 1.536,1.309 2.377,1.245l0.066,-0.005l0.066,0.013l14.81,2.902c3.879,-0.289 7.771,-1.763 11.537,-3.188c5.378,-2.036 10.94,-4.139 16.463,-2.749c8.01,2.017 14.188,7.205 20.162,12.224c3.748,3.148 7.623,6.404 11.917,8.847c3.703,2.108 7.836,4.46 12.079,4.136c3.611,-0.274 6.787,-1.79 10.149,-3.395c2.549,-1.216 5.184,-2.474 8.01,-3.125c19.739,-4.55 65.747,-10.025 83.985,-9.173c0.499,0.022 0.606,0.357 0.628,0.459c0.12,0.575 -0.276,0.791 -3.916,2.582c-4.542,2.234 -12.998,6.394 -13.147,9.062c-0.009,0.167 -0.037,0.676 0.827,1.229c10.566,6.751 17.097,9.349 19.958,7.939c1.797,-0.882 2.021,-3.384 2.237,-5.805c0.216,-2.411 0.438,-4.905 2.349,-5.726c2.261,-0.975 6.91,-0.119 24.261,13.592c0.857,0.678 1.287,1.632 1.244,2.76c-0.114,2.965 -3.336,6.43 -5.587,7.944c-3.709,2.492 -9.129,5 -14.868,7.655c-13.403,6.2 -28.594,13.229 -30.608,23.41c-0.944,4.78 1.084,9.788 6.202,15.315c1.318,1.424 2.969,2.674 4.565,3.883c1.963,1.486 3.993,3.022 5.485,4.928c0.564,0.72 1.191,1.454 1.829,2.203c2.75,3.22 5.866,6.871 4.932,10.761c-0.756,3.145 -3.829,5.182 -6.802,7.153c-2.236,1.482 -4.549,3.015 -5.822,4.981c-2.321,3.585 -3.7,7.636 -5.033,11.554c-1.087,3.192 -2.211,6.493 -3.843,9.569c-0.808,1.522 -2.138,2.801 -3.424,4.037c-1.603,1.542 -3.118,2.999 -3.626,4.827c-0.232,0.834 1.017,1.914 3.342,2.89c0.376,0.158 0.787,0.227 1.214,0.261l3.191,-2.698l15.704,0l51.039,23.23l43.186,0l7.851,-8.711l7.853,-49.362l15.704,-5.808l51.038,14.519l15.704,0l15.704,-2.904l11.778,-11.615l51.038,-8.711l54.964,14.519l62.817,2.903l15.704,-14.518l-3.926,-92.917l32.142,-0.793c0.468,-1.973 0.93,-3.942 1.381,-5.875c1.626,-6.984 3.307,-14.206 5.397,-21.229" id="svg_160"/>
    </g>
    <!-- <title>sanduxiang</title> -->
    <g id="svg-zone-sandu" fill="rgba(61, 175, 255, 0)" fill-rule="nonzero" cursor="pointer">
      <path d="m1163.70155,200.68773c0.136,3.385 0.275,6.885 -0.723,10.229c-4.622,15.474 -57.444,20.512 -67.986,21.364l-0.199,0.017c-16.055,1.945 -28.811,2.341 -40.066,2.691c-29.463,0.916 -45.852,1.444 -74.485,28.91c7.488,1.253 15.849,3.039 25.522,5.435c1.415,0.351 1.827,1.15 1.922,1.76c0.822,5.223 -20.021,19.729 -20.234,19.861c-73.043,45.285 -73.861,46.879 -75.841,50.728c-0.184,0.359 -0.379,0.737 -0.635,1.167c-0.567,0.95 -0.964,2.358 -0.817,2.632c6.555,-1.269 12.969,-3.311 19.171,-5.286c5.024,-1.6 10.221,-3.255 15.48,-4.469c15.238,-3.518 21.042,2.345 28.395,9.769c5.199,5.248 11.091,11.196 21.674,15.604c5.684,2.368 12.348,2.713 18.793,3.047c6.925,0.36 14.088,0.731 20.132,3.602c4.398,2.089 7.543,5.969 9.349,11.53c3.957,12.191 0.384,29.093 -3.718,36.607c-1.35,2.475 -3.842,5.379 -6.481,8.453c-6.415,7.472 -14.398,16.77 -10.628,25.381c0.98,2.238 4.395,2.703 7.697,3.154c1.668,0.227 3.383,0.468 4.837,0.931c1.613,-1.079 3.437,-2.284 5.501,-3.632c11.353,-7.412 23.69,-13.967 35.619,-20.307c8.489,-4.51 17.265,-9.174 25.611,-14.106c2.607,-1.541 4.773,-3.704 6.547,-5.617c3.239,-3.492 6.629,-7.163 8.659,-9.471c-0.312,0.243 -0.634,0.494 -0.953,0.744c-7.307,5.709 -14.641,11.102 -17.076,8.878c-1.783,-1.628 -1.811,-7.426 18.444,-38.835c4.11,-6.374 12.476,-9.469 20.568,-12.462c2.249,-0.832 4.575,-1.693 6.714,-2.597c11.879,-5.021 22.975,-4.822 34.729,-4.61c7.056,0.127 14.356,0.258 22.197,-0.741c10.266,-1.306 21.421,-2.282 32.207,-3.225c17.447,-1.527 35.489,-3.104 51.613,-6.171c9.783,-1.861 13.334,-2.117 14.703,-1.033l0,-62.478l-19.631,-20.325l11.779,-37.748l-15.704,-26.133l-3.926,-2.903l-3.926,-2.904l-51.039,5.807l-19.63,-5.807l-7.852,8.711l-26.387,0c-0.009,1.284 0.023,2.58 0.074,3.848" id="svg_150"/>
    </g>
    <!-- <title>shuinanjiedao</title> -->
    <g id="svg-zone-shuinan" fill="rgba(61, 175, 255, 0)" fill-rule="nonzero" cursor="pointer">
      <path d="m976.28314,475.6251c-20.684,-46.617 -87.524,-57.673 -141.232,-66.556c-15.545,-2.571 -30.228,-5 -42.698,-8.058c-2.727,-0.669 -4.744,-2.493 -6.694,-4.258c-1.635,-1.479 -3.325,-3.008 -5.399,-3.792c-27.619,-10.422 -43.077,-6.33 -57.033,15.104l-0.583,-0.38c1.06,0.883 1.819,2.252 2.106,3.54c1.845,8.262 2.291,16.777 2.59,24.792c0.796,21.326 -8.322,28.876 -23.428,41.384c-2.112,1.749 -4.296,3.562 -6.604,5.529c3.124,2.273 6.352,4.767 9.776,7.416c1.283,0.993 1.339,2.489 1.393,3.936c0.035,0.918 0.067,1.785 0.399,2.502c0.406,0.876 0.8,1.76 1.196,2.647c1.801,4.035 3.664,8.208 6.663,11.668c0.431,0.497 1.615,0.487 2.663,0.478c1.287,-0.006 2.624,-0.022 3.162,0.847l8.369,-0.574l0.111,0.388c0.739,2.585 0.669,7.444 0.588,13.07c-0.166,11.511 -0.393,27.277 6.135,34.963c6.309,7.425 19.836,6.963 32.924,6.515c11.823,-0.4 22.989,-0.784 28.519,4.559c1.905,1.841 3.001,4.228 3.35,7.234c0.788,-1.651 1.79,-3.195 3.105,-4.575c5.069,-5.326 15.18,-5.294 24.406,-4.557c17.883,1.425 35.773,4.62 53.073,7.709c10.828,1.934 22.024,3.933 33.104,5.478c0.972,0.136 2.244,0.434 3.591,0.75c2.511,0.591 6.306,1.48 6.995,0.764c0.032,-0.034 0.13,-0.135 0.027,-0.496c-0.864,-3.055 -4.198,-4.863 -7.727,-6.777c-2.296,-1.245 -4.671,-2.533 -6.375,-4.225c-7.986,-7.923 -13.901,-14.718 -18.615,-21.383c-14.215,-20.103 -5.902,-28.87 6.681,-42.139c3.002,-3.165 6.403,-6.752 9.745,-10.781c1.665,-2.007 2.584,-4.908 3.474,-7.713c1.492,-4.709 3.036,-9.578 8.197,-10.165c4.399,-0.494 4.992,4 5.57,8.353c0.371,2.787 0.753,5.671 2.054,7.445c0.241,0.329 0.706,0.989 1.368,1.931c0.187,0.265 0.37,0.522 0.556,0.785c4.558,-0.147 9.157,-0.199 14.023,-0.253c11.417,-0.126 23.44,-0.263 34.966,-1.819c-0.488,-2.5 -0.797,-4.836 -1.087,-7.093c-0.608,-4.724 -1.183,-9.187 -3.404,-14.193" id="svg_145"/>
    </g>
    <!-- <title>siduxiang</title> -->
    <g id="svg-zone-sidu" fill="rgba(61, 175, 255, 0)" fill-rule="nonzero" cursor="pointer">
      <path d="m836.29016,125.74229c-0.007,3.001 -0.012,4.022 -2.514,7.17c-18.876,32.665 -18.013,37.869 -14.393,59.569c1.341,8.037 3.01,18.039 4.211,32.47c0.045,0.537 0.096,1.079 0.148,1.624c0.35,3.694 0.712,7.514 -0.858,10.972c-0.763,1.68 -2.787,2.807 -4.745,3.898c-2.227,1.239 -4.33,2.41 -3.929,4.071c1.621,6.719 6.707,6.748 13.147,6.785c7.514,0.043 16.866,0.096 21.991,12.637l-0.017,0.007c0.781,0.645 1.114,2.044 1.492,3.638c0.338,1.427 0.688,2.902 1.354,3.682c1.917,2.247 4.434,4.391 7.697,6.554c1.143,0.757 2.571,1.207 3.826,1.171c4.581,-0.09 8.823,-0.618 12.608,-1.569c9.298,-2.336 17.468,-4.53 24.677,-6.466c31.842,-8.551 47.804,-12.822 78.588,-7.854c29.25,-28.255 45.794,-28.78 75.694,-29.71c11.234,-0.35 23.965,-0.745 39.982,-2.686l0.233,-0.019c6.392,-0.517 62.579,-5.489 67.108,-20.654c0.951,-3.184 0.814,-6.6 0.682,-9.903c-0.05,-1.277 -0.084,-2.585 -0.075,-3.888l-4.02,0l-19.631,-20.326l-70.668,0l-11.778,-5.807l-11.778,-17.422l3.926,-26.132l-19.63,-11.615l-31.408,-2.904l-11.778,-5.807l-15.705,2.904l-27.482,29.036l-11.777,-5.807l-3.927,-11.615l-43.186,2.904l-11.778,-5.807l-36.338,4.886c0.04,0.138 0.068,0.292 0.064,0.477c-0.011,0.572 -0.012,1.078 -0.013,1.536" id="svg_140"/>
    </g>
    <!-- <title>xiangxizhen</title> -->
    <g id="svg-zone-xiangxi" fill="rgba(61, 175, 255, 0)" fill-rule="nonzero" cursor="pointer">
      <path d="m1182.73744,686.85607c2.573,-2.158 6.03,-3.483 9.374,-4.765c4.284,-1.641 8.331,-3.192 10.598,-6.315c2.155,-2.969 1.716,-6.603 1.253,-10.45c-0.297,-2.46 -0.604,-5.005 -0.185,-7.398c2.867,-16.416 8.204,-46.973 25.83,-59.382c10.818,-7.614 23.935,-9.148 36.618,-10.631c12.047,-1.409 24.503,-2.866 34.923,-9.545c3.054,-1.958 4.14,-5.224 5.288,-8.681c0.859,-2.583 1.746,-5.254 3.525,-7.398c6.338,-7.642 15.082,-13.036 23.538,-18.251c12.456,-7.684 24.221,-14.942 28.556,-28.69c4.329,-13.733 1.041,-21.659 -2.44,-30.05c-2.607,-6.283 -5.303,-12.78 -5.392,-22.226c-0.007,-0.816 -0.064,-1.642 -0.125,-2.517c-0.202,-2.939 -0.411,-5.979 1.332,-8.498c0.977,-1.411 3.196,-1.851 5.341,-2.277c2.523,-0.501 4.171,-0.916 4.11164,-2.081c-0.66764,-12.204 -11.23264,-19.845 -21.44864,-27.233c-6.558,-4.743 -13.341,-9.648 -17.456,-15.727c-5.29,-7.814 -9.719,-15.915 -12.986,-22.1c-2.025,-3.832 -12.693,-27.288 -14.079,-34.764c-0.192,-1.634 0.004,-3.025 0.161,-4.142c0.187,-1.328 0.272,-2.099 -0.14,-2.491c-1.07,-1.021 -6.136,-0.303 -13.958,1.185c-16.174,3.076 -34.241,4.656 -51.714,6.185c-11.272,0.986 -21.92,1.917 -32.167,3.221c-7.914,1.008 -15.25,0.877 -22.34,0.749c-11.644,-0.212 -22.638,-0.408 -34.324,4.531c-2.158,0.913 -4.496,1.778 -6.756,2.614c-7.937,2.936 -16.145,5.972 -20.075,12.065c-19.262,29.872 -19.926,36.352 -18.608,37.556c2.006,1.834 11.662,-5.706 15.784,-8.928c3.523,-2.752 3.814,-2.983 4.26,-2.496c0.497,0.542 0.574,0.625 -10.616,12.691c-1.824,1.966 -4.054,4.192 -6.773,5.799c-8.364,4.943 -17.151,9.612 -25.648,14.127c-11.911,6.329 -24.228,12.875 -35.542,20.262c-4.646,3.033 -16.985,11.09 -17,12.52c0.183,0.144 1.437,0.158 2.267,0.167c2.215,0.024 4.973,0.053 5.848,1.937c0.939,2.024 -0.706,5.486 -5.176,10.896c-19.125,23.144 -51.849,23.506 -80.721,23.825c-4.625,0.051 -9.008,0.102 -13.34,0.234c26.556,37.524 48.055,60.753 62.225,67.207c4.159,1.894 9.161,2.546 13.999,3.177c6.32,0.823 12.854,1.675 17.536,5.328c6.244,4.871 9.281,11.89 12.219,18.677c1.68,3.881 3.417,7.895 5.734,11.448c0.842,1.294 2.161,2.456 3.437,3.58c1.999,1.762 4.066,3.583 4.496,6.048c1.266,7.247 -0.92,14.344 -2.975,19.021c-1.531,3.48 -5.831,7.396 -9.99,11.182c-4.387,3.995 -8.925,8.126 -8.431,10.474c0.162,0.768 0.886,1.359 2.215,1.807c15.668,5.266 33.19,3.482 50.132,1.756c13.441,-1.368 27.338,-2.785 40.488,-0.77c6.254,0.957 6.135,9.931 6.078,14.243c-0.044,3.299 -1.706,6.337 -3.314,9.275c-1.054,1.926 -2.144,3.918 -2.745,5.939c-2.082,6.994 -3.76,14.201 -5.383,21.171c-0.43,1.85 -0.871,3.733 -1.319,5.623l58.162,-1.434c0.405,-8.272 1.164,-21.683 7.838,-27.28" id="svg_130"/>
    </g>
    <!-- <title>xinxingzhen</title> -->
    <g id="svg-zone-xinxing" fill="rgba(61, 175, 255, 0)" fill-rule="nonzero" cursor="pointer">
      <path d="m302.16326,294.67683c1.855,0.308 3.174,1.099 3.92,2.352c1.814,3.048 0.024,8.236 -1.872,13.729c-1.397,4.046 -2.84,8.231 -2.705,11.386c0.118,2.725 -0.275,5.783 -0.655,8.74c-0.907,7.061 -1.845,14.362 3.85,18.197c9.052,6.094 44.106,-3.189 57.199,-8.087c2.238,-0.837 5.542,-3.135 8.458,-5.162c4.761,-3.31 7.298,-5.001 8.468,-4.209c0.7,0.473 0.462,1.508 0.384,1.848c-3.001,13.078 -10.43,24.995 -17.614,36.519c-15.162,24.324 -29.484,47.298 -1.623,78.211c10.16,11.273 23.781,9.501 38.204,7.619c17.195,-2.238 36.686,-4.779 53.799,14.578c5.011,5.667 4.635,13.17 4.271,20.427c-0.217,4.351 -0.442,8.85 0.494,12.906c0.865,3.75 2.577,4.982 4.929,5.499c4.544,-5.711 2.813,-12.348 1.121,-18.775c-2.111,-8.019 -4.294,-16.311 5.823,-22.536c21.464,-13.208 35.012,-12.45 55.522,-11.302c10.721,0.599 22.874,1.281 39.17,0.294c3.036,-0.185 5.852,-1.883 8.475,-3.607c12.681,-8.33 14.035,-8.33 17.015,-8.277c2.665,0.025 6.705,0.082 22.564,-6.49c1.357,-0.562 2.689,-2.379 2.849,-3.887c0.078,-0.727 -0.122,-1.262 -0.593,-1.588c-4.39,-3.033 -9.886,-4.819 -15.201,-6.546c-5.444,-1.768 -11.074,-3.597 -15.607,-6.779c-7.271,-5.103 -15.193,-15.203 -15.406,-25.317c-0.121,-5.754 2.374,-10.758 7.217,-14.471c2.527,-1.938 5.712,-3.572 9.085,-5.302c6.046,-3.102 12.297,-6.31 15.223,-11.567c0.705,-1.267 0.727,-2.719 0.751,-4.256c0.018,-1.21 0.037,-2.461 0.408,-3.657c1.486,-4.783 -0.428,-6.256 -2.116,-7.555c-0.906,-0.697 -1.762,-1.355 -1.786,-2.44c-0.024,-1.077 0.796,-2.345 2.758,-4.185c-13.986,3.957 -24.427,4.691 -35.45,5.466c-8.806,0.62 -17.911,1.26 -29.598,3.557c-2.896,0.568 -5.507,1.395 -8.031,2.194c-7.714,2.441 -14.375,4.55 -23.529,-2.964c-2.255,-1.851 -1.583,-4.903 -0.99,-7.596c0.131,-0.593 0.258,-1.172 0.348,-1.716c0.493,-2.978 3.261,-18.127 9.402,-23.962c1.723,-1.638 4.086,-2.87 6.37,-4.06c3.505,-1.827 6.814,-3.552 7.791,-6.535c4.048,-12.375 -17.394,-23.873 -28.914,-30.049c-2.971,-1.594 -5.318,-2.852 -6.391,-3.688c-0.929,-0.723 -8.475,-10.457 -8.73,-15.457c-0.055,-1.067 0.215,-1.893 0.801,-2.455c10.089,-9.66 44.416,-19.412 58.852,-7.494c3.06,2.527 3.362,7.133 3.654,11.587c0.338,5.143 0.629,9.585 5.042,9.77c8.323,0.347 14.575,-5.04 21.177,-10.745c3.807,-3.29 7.744,-6.691 12.124,-8.892c2.66,-1.337 7.694,-3.085 14.068,-5.298c26.523,-9.21 75.892,-26.353 73.539,-54.641c-0.375,-4.5 -5.64,-7.39 -10.732,-10.185c-1.84,-1.01 -3.579,-1.963 -5.118,-2.999c-2.177,-1.465 -4.768,-2.508 -7.275,-3.516c-2.19,-0.882 -4.455,-1.794 -6.481,-2.994c-27.005,-16.011 -38.696,-24.137 -44.977,-28.502c-8.271,-5.749 -8.271,-5.749 -22.323,-9.638c-15.718,-4.351 -48.356,-13.385 -128.399,-40.211l-16.07,19.016l-78.52,55.169l-19.63,43.555l-27.482,-11.615l-7.852,2.904l7.852,14.518l-7.852,29.037l-66.742,0l-11.778,5.807l-31.409,40.651l-3.925,14.518l19.629,17.423l0,3.917c0.335,-0.141 0.654,-0.275 0.996,-0.418c27.601,-11.61 78.973,-33.219 99.774,-29.769" id="svg_125"/>
    </g>
    <!-- <title>xipingjiedao</title> -->
    <g id="svg-zone-xiping" fill="rgba(61, 175, 255, 0)" fill-rule="nonzero" cursor="pointer">
      <path d="m1021.81084,449.31051c-4.021,-9.186 4.188,-18.749 10.785,-26.433c2.604,-3.033 5.063,-5.898 6.363,-8.281c4.015,-7.356 7.514,-23.895 3.644,-35.819c-1.717,-5.289 -4.688,-8.968 -8.828,-10.935c-5.864,-2.786 -12.926,-3.152 -19.754,-3.506c-6.529,-0.339 -13.281,-0.69 -19.126,-3.124c-10.768,-4.484 -16.734,-10.508 -21.999,-15.823c-7.414,-7.484 -12.766,-12.894 -27.46,-9.498c-5.22,1.205 -10.396,2.853 -15.401,4.447c-6.233,1.984 -12.676,4.036 -19.286,5.263c-0.585,0.11 -0.884,-0.18 -1.011,-0.361c-0.728,-1.044 0.764,-3.687 0.78,-3.714c0.244,-0.408 0.429,-0.769 0.605,-1.111c2.128,-4.14 2.925,-5.689 76.203,-51.121c2.401,-1.488 20.416,-14.771 19.773,-18.856c-0.026,-0.168 -0.106,-0.679 -1.175,-0.944c-9.972,-2.471 -18.536,-4.284 -26.192,-5.536c-0.027,0.028 -0.055,0.053 -0.083,0.08l-0.108,-0.11c-30.796,-5.007 -46.685,-0.755 -78.465,7.781c-7.213,1.937 -15.387,4.132 -24.694,6.47c-3.857,0.97 -8.175,1.508 -12.832,1.599c-1.472,0.016 -3.073,-0.459 -4.398,-1.338c-3.341,-2.215 -5.927,-4.419 -7.904,-6.737c-0.825,-0.965 -1.203,-2.56 -1.568,-4.101c-0.321,-1.359 -0.686,-2.9 -1.284,-3.185c-0.063,-0.029 -0.255,-0.122 -0.679,0.082c-11.413,5.481 -15.588,16.363 -19.626,26.887c-3.463,9.025 -7.044,18.357 -15.222,23.818c-13.537,9.038 -28.434,13.302 -44.207,17.817c-7.632,2.185 -15.517,4.447 -23.296,7.304c1.891,5.717 1.964,10.028 0.186,13.132c-2.71,4.73 -9.203,6.007 -16.077,7.358c-7.423,1.459 -15.099,2.967 -19.041,8.819c-2.457,3.647 -3.435,6.405 -2.988,8.434c0.474,2.156 2.554,3.415 4.756,4.749c3.769,2.283 8.041,4.87 5.922,12.575c-1.119,4.072 -4.213,6.093 -7.49,8.233c-1.56,1.019 -3.156,2.081 -4.634,3.4c1.28,-0.063 2.528,-0.129 3.728,-0.192c4.699,-0.249 8.754,-0.464 11.424,-0.275c0.717,0.05 1.369,0.344 1.95,0.768c14.274,-21.918 30.054,-26.116 58.219,-15.485c2.251,0.85 4.012,2.444 5.717,3.985c1.943,1.759 3.779,3.42 6.261,4.028c12.433,3.05 27.097,5.476 42.622,8.043c53.946,8.923 121.081,20.027 141.984,67.137c2.28,5.139 2.864,9.672 3.481,14.471c0.291,2.258 0.599,4.594 1.088,7.085c17.026,-2.426 32.892,-8.059 44.003,-21.507c5.084,-6.152 5.547,-8.745 5.04,-9.836c-0.609,-1.313 -3.017,-1.339 -4.951,-1.36c-1.722,-0.018 -2.965,-0.031 -3.22,-0.907c-0.282,-0.966 0.422,-2.239 10.828,-9.255c-1.201,-0.3 -2.557,-0.489 -3.884,-0.671c-3.577,-0.487 -7.274,-0.992 -8.479,-3.744" id="svg_120"/>
    </g>
    <!-- <title>yecunxiang</title> -->
    <g id="svg-zone-yecun" fill="rgba(61, 175, 255, 0)" fill-rule="nonzero" cursor="pointer">
      <path d="m524.18444,502.13411c2.145,1.279 3.74,3.248 5.282,5.152c2.115,2.613 4.114,5.08 7.353,5.716c9.951,1.949 20.492,0.913 30.686,-0.093c2.611,-0.256 5.311,-0.523 7.948,-0.732c19.644,-1.563 32.983,-10.941 47.106,-20.87c7.904,-5.557 16.076,-11.302 25.542,-15.679c20.833,-9.628 33.762,-4.27 49.124,6.776c2.382,-2.035 4.628,-3.897 6.8,-5.695c15.374,-12.731 23.843,-19.745 23.066,-40.578c-0.297,-7.968 -0.74,-16.431 -2.566,-24.611c-0.327,-1.462 -1.597,-3.576 -3.4,-3.703c-2.608,-0.183 -6.637,0.03 -11.301,0.277c-16.937,0.896 -42.536,2.25 -52.992,-11.136c-12.311,-15.761 -13.071,-21.823 -11.936,-24.15c-4.206,0.164 -16.37,-1.516 -44.888,-10.246c-0.121,0.411 -0.282,0.815 -0.5,1.207c-3.073,5.522 -9.462,8.8 -15.64,11.97c-3.331,1.709 -6.477,3.324 -8.934,5.207c-4.644,3.561 -6.94,8.156 -6.824,13.655c0.205,9.767 7.909,19.557 14.979,24.52c4.411,3.096 9.969,4.901 15.343,6.647c5.383,1.749 10.95,3.557 15.46,6.675c0.773,0.534 1.135,1.428 1.02,2.516c-0.202,1.886 -1.754,3.997 -3.462,4.705c-16.049,6.65 -20.214,6.594 -22.959,6.566c-2.763,-0.038 -4.028,-0.049 -16.453,8.113c-2.736,1.798 -5.682,3.569 -8.964,3.769c-16.353,0.989 -28.537,0.308 -39.287,-0.294c-20.32,-1.136 -33.745,-1.89 -54.941,11.155c-9.485,5.837 -7.491,13.411 -5.38,21.43c1.715,6.514 3.469,13.237 -0.974,19.225c0.691,0.093 1.427,0.153 2.206,0.217c2.42,0.197 5.163,0.421 8.013,1.769c2.777,1.315 5.905,3.71 9.099,6.65c0.86,-0.82 1.78,-1.734 2.772,-2.721c8.7,-8.66 23.26,-23.155 39.602,-13.409" id="svg_115"/>
    </g>
    <!-- <title>yuxixiang</title> -->
    <g id="svg-zone-yuxi" fill="rgba(61, 175, 255, 0)" fill-rule="nonzero" cursor="pointer">
      <path d="m1527.27937,599.69362l-23.557,-29.036l-7.851,-43.555l-11.779,-14.518l-15.61,-43.296c-1.559,0.148 -3.073,0.23 -4.532,0.23c-13.281,0 -22.738,-5.832 -33.504,-12.471c-8.96,-5.524 -18.225,-11.237 -31.134,-14.601c-7.676,-1.999 -14.92,-0.941 -22.587,0.18c-3.605,0.526 -7.329,1.055 -11.174,1.28c0.206,1.029 0.346,2.092 0.406,3.192c0.113,2.118 -2.442,2.625 -4.912,3.116c-1.952,0.387 -3.968,0.788 -4.714,1.865c-1.544,2.231 -1.347,5.093 -1.156,7.861c0.058,0.851 0.119,1.731 0.126,2.575c0.087,9.252 2.746,15.658 5.316,21.854c3.553,8.563 6.909,16.652 2.47,30.733c-4.447,14.103 -16.367,21.455 -28.986,29.239c-8.386,5.174 -17.06,10.525 -23.293,18.039c-1.658,2 -2.515,4.581 -3.344,7.076c-1.154,3.469 -2.346,7.058 -5.699,9.207c-10.613,6.804 -23.186,8.274 -35.345,9.696c-12.56,1.469 -25.548,2.987 -36.159,10.457c-17.288,12.17 -22.579,42.462 -25.421,58.735c-0.393,2.248 -0.095,4.718 0.193,7.107c0.467,3.869 0.949,7.87 -1.438,11.157c-2.44,3.363 -6.816,5.04 -11.048,6.662c-3.267,1.251 -6.645,2.546 -9.089,4.596c-6.323,5.303 -7.08,18.375 -7.479,26.49l25.44,-0.627l66.743,14.518l113.854,-23.23l113.855,23.23l19.63,-8.711l27.482,-14.519l3.926,-23.228l-19.63,-81.303z" id="yuxixiang"/>
    </g>
    <!-- <title>yuyanzhen</title> -->
    <g id="svg-zone-yuyan" fill="rgba(61, 175, 255, 0)" fill-rule="nonzero" cursor="pointer">
      <path d="m149.7292,505.32919c-0.279,0.351 -0.676,0.173 -1.027,0.016c-0.66,-0.295 -1.342,-0.55 -1.778,-0.149c-1.106,1.017 -1.751,6.186 6.362,29.37c3.237,9.25 27.479,53.035 37.448,62.11c2.788,2.537 5.525,5.272 8.173,7.918c7.829,7.822 15.924,15.912 26.649,20.301c8.882,3.637 19.404,2.643 29.579,1.679c2.339,-0.221 4.758,-0.45 7.084,-0.612c2.834,-0.197 5.798,-1.633 8.664,-3.022c4.227,-2.047 8.599,-4.167 12.403,-2.041c4.192,2.34 4.77,6.986 5.328,11.479c0.49,3.932 0.995,7.999 3.948,10.435c8.479,6.995 19.179,11.865 29.526,16.574c6.622,3.013 13.47,6.129 19.713,9.786c1.101,0.645 1.694,1.664 2.268,2.65c0.461,0.793 0.897,1.543 1.575,2.077c0.71,0.561 1.714,0.907 2.686,1.241c1.331,0.458 2.708,0.931 3.539,1.992c1.547,1.974 2.388,4.268 3.202,6.487c0.706,1.928 1.437,3.921 2.625,5.646c1.275,1.849 3.431,3.203 5.531,4.431c0.515,0.302 1.931,0.525 2.867,0.672c0.981,0.155 1.439,0.231 1.624,0.451c6.157,-0.107 13.753,-0.025 21.744,0.294c4.539,-2.584 8.785,-6.237 12.89,-9.773c6.102,-5.257 12.412,-10.693 20.062,-13.059c12.887,-3.986 26.656,-5.989 39.972,-7.926c11.016,-1.602 22.407,-3.259 33.234,-6.031c8.699,-2.227 17.511,-5.054 23.04,-10.606c2.066,-2.076 2.069,-5.048 2.071,-8.195c0.004,-3.216 0.007,-6.541 2.374,-8.906c6.589,-6.582 13.975,-5.356 21.117,-4.176c5.799,0.96 11.797,1.952 17.42,-1.221c3.987,-2.251 5.869,-6.119 7.86,-10.213c1.424,-2.928 2.897,-5.955 5.212,-8.363c2.593,-2.693 6.478,-6.737 10.565,-5.654c4.486,1.186 7.76,4.254 10.925,7.223c2.273,2.131 4.623,4.334 7.4,5.812c0.774,0.412 2.185,0.165 3.429,-0.053c1.775,-0.315 3.61,-0.637 4.013,0.908c0.132,0.505 0.187,1.036 0.21,1.578c1.47,-0.323 3.022,-0.591 4.671,-0.861c6.379,-1.045 13.609,-2.23 16.212,-8.006c2.076,-4.607 2.212,-9.77 2.343,-14.763c0.034,-1.285 0.068,-2.566 0.133,-3.835c0.106,-2.064 0.106,-4.205 -1.132,-5.708c-2.785,-3.383 -6.482,-6.248 -10.058,-9.019c-1.036,-0.802 -2.071,-1.605 -3.085,-2.419c-0.424,-0.34 -0.841,-0.708 -1.261,-1.08c-1.367,-1.207 -2.781,-2.455 -4.568,-2.778c-10.077,-1.821 -21.053,-2.896 -34.542,-3.382c-8.412,-0.301 -17.085,0.279 -25.47,0.84c-13.873,0.931 -28.219,1.892 -41.78,-1.13c-4.601,-1.025 -5.577,-5.513 -6.521,-9.854c-0.541,-2.487 -1.1,-5.058 -2.331,-6.947c-3.992,-6.124 -21.498,-29.375 -32.289,-34.482c-2.686,-1.271 -5.333,-1.487 -7.667,-1.677c-4.157,-0.339 -7.746,-0.631 -9.143,-6.683c-0.968,-4.193 -0.739,-8.762 -0.518,-13.181c0.37,-7.381 0.719,-14.352 -4.021,-19.715c-16.763,-18.96 -35.144,-16.564 -52.922,-14.248c-14.688,1.913 -28.563,3.723 -39.076,-7.941c-28.364,-31.473 -13.85,-54.758 1.518,-79.409c7.141,-11.456 14.524,-23.301 17.488,-36.214c0.148,-0.645 0.032,-0.796 0.031,-0.797c-0.573,-0.501 -4.807,2.442 -7.337,4.202c-3.109,2.162 -6.324,4.397 -8.679,5.278c-11.526,4.312 -48.203,14.649 -58.108,7.979c-6.207,-4.179 -5.229,-11.792 -4.283,-19.154c0.391,-3.049 0.762,-5.929 0.648,-8.569c-0.144,-3.345 1.331,-7.62 2.758,-11.755c1.738,-5.036 3.535,-10.243 1.958,-12.892c-0.596,-1.002 -1.651,-1.616 -3.225,-1.877c-20.512,-3.406 -71.714,18.134 -99.222,29.704c-0.474,0.2 -0.922,0.388 -1.383,0.582l0,0.805l-23.556,26.132l-3.926,31.941l7.852,37.747l-23.556,11.615l-15.704,20.325l23.556,23.23l-7.852,5.806l0,14.519l-7.597,5.619c0.377,0.593 0.298,0.695 0.117,0.922" id="svg_110"/>
    </g>
    <!-- <title>zhaitanxiang</title> -->
    <g id="svg-zone-zhaitan" fill="rgba(61, 175, 255, 0)" fill-rule="nonzero" cursor="pointer">
      <path d="m645.88251,371.92508c0.218,-0.108 0.466,-0.158 0.674,-0.016l0.353,0.244l-0.186,0.39c-0.044,0.092 -0.164,0.18 -0.37,0.255l0.001,0.011c-0.004,0.001 -0.45,0.162 -0.69,0.939c-0.502,1.62 -0.344,7.086 11.93,22.8c9.12,11.674 30.501,11.762 46.883,11.017c1.767,-1.776 3.727,-3.068 5.628,-4.309c3.248,-2.123 6.053,-3.955 7.073,-7.662c1.917,-6.975 -1.842,-9.252 -5.477,-11.454c-2.39,-1.448 -4.648,-2.815 -5.215,-5.389c-0.515,-2.343 0.481,-5.268 3.136,-9.208c4.173,-6.195 12.055,-7.744 19.677,-9.242c6.644,-1.306 12.919,-2.539 15.402,-6.874c1.698,-2.962 1.54,-7.21 -0.48,-12.988c-0.994,-2.845 -0.391,-5.77 0.192,-8.599c0.639,-3.1 1.242,-6.028 -0.157,-8.756c-0.597,-1.163 -0.767,-3.423 -0.964,-6.039c-0.245,-3.263 -0.55,-7.323 -1.884,-8.284c-2.228,-1.604 -22.04,-12.871 -24.714,-12.90511c-0.068,0 -0.133,0.00511 -0.201,0.00411c-0.127,0.085 -0.254,0.167 -0.387,0.223c-0.259,0.108 -0.522,0.162 -0.789,0.162c-0.352,0 -0.709,-0.095 -1.07,-0.282c-7.929,0.726 -14.699,5.465 -21.281,10.05c-7.746,5.396 -15.754,10.968 -25.543,9.968c-4.578,-0.472 -8.978,-1.884 -13.234,-3.249c-3.962,-1.271 -8.059,-2.586 -12.256,-3.12c-16.927,-2.15 -33.887,20.104 -41.059,30.919l0.076,0.142c-0.14,0.118 -0.26,0.226 -0.393,0.34c-0.122,0.186 -0.249,0.378 -0.365,0.557l-0.159,-0.103c-2.146,1.907 -3.186,3.25 -3.16726,4.09c0.01326,0.577 0.53826,1.011 1.39526,1.67c1.753,1.348 4.154,3.196 2.462,8.645c-0.328,1.057 -0.345,2.183 -0.363,3.375c-0.013,0.843 -0.03,1.699 -0.162,2.54c36.296,11.116 44.508,10.363 45.684,10.138" id="svg_105"/>
    </g>
    <!-- <title>zhangxixiang</title> -->
    <g id="svg-zone-zhangxi" fill="rgba(61, 175, 255, 0)" fill-rule="nonzero" cursor="pointer">
      <path d="m642.30967,308.31682c4.289,0.545 8.431,1.875 12.436,3.16c4.207,1.349 8.557,2.745 13.03,3.206c9.415,0.967 16.924,-4.259 24.869,-9.794c6.363,-4.433 12.93,-8.99 20.569,-10.084c-12.225,-8.405 -16.335,-15.395 -21.047,-23.45c-1.927,-3.293 -3.919,-6.699 -6.623,-10.514c-4.271,-6.023 -6.243,-11.064 -7.984,-15.511c-2.368,-6.054 -4.08,-10.428 -10.317,-13.936c-2.554,-1.436 -1.871,-4.256 -1.211,-6.983c0.533,-2.2 1.084,-4.476 -0.083,-5.938c-1.449,-1.815 -2.838,-2.764 -4.131,-2.822c-1.55,-0.042 -2.675,1.121 -3.427,1.908c-0.502,0.526 -0.863,0.907 -1.328,0.68c-0.457,-0.222 -0.51,-0.651 -0.194,-2.94c-16.316,13.343 -42.65,22.49 -59.67,28.4c-6.339,2.201 -11.346,3.939 -13.947,5.246c-4.269,2.146 -8.158,5.506 -11.919,8.756c-6.459,5.581 -13.135,11.35 -21.873,10.987c-5.31,-0.222 -5.659,-5.55 -5.997,-10.704c-0.278,-4.242 -0.566,-8.628 -3.294,-10.88c-14.073,-11.622 -47.64,-2.019 -57.523,7.445c-0.367,0.351 -0.534,0.917 -0.495,1.682c0.236,4.626 7.485,14.047 8.347,14.718c1.006,0.784 3.32,2.025 6.249,3.596c11.778,6.315 33.7,18.07 29.391,31.241c-1.103,3.371 -4.751,5.272 -8.279,7.111c-2.223,1.159 -4.522,2.357 -6.143,3.898c-5.91,5.615 -8.621,20.478 -9.104,23.4c-0.093,0.561 -0.224,1.157 -0.359,1.768c-0.557,2.53 -1.132,5.146 0.649,6.608c8.736,7.17 14.85,5.234 22.592,2.784c2.551,-0.808 5.189,-1.642 8.14,-2.223c11.748,-2.308 20.884,-2.95 29.72,-3.572c11.416,-0.803 22.211,-1.566 36.969,-5.933c7.299,-10.996 24.539,-33.535 41.987,-31.31" id="svg_100"/>
    </g>
    <!-- <title>zhuyuanxiang</title> -->
    <g id="svg-zone-zhuyuan" fill="rgba(61, 175, 255, 0)" fill-rule="nonzero" cursor="pointer">
      <path d="m771.60741,568.59206c-13.323,0.459 -27.099,0.928 -33.72,-6.867c-6.772,-7.972 -6.542,-23.954 -6.373,-35.624c0.075,-5.266 0.142,-9.85 -0.449,-12.391l-8.302,0.569l-0.112,-0.388c-0.149,-0.525 -1.268,-0.511 -2.359,-0.507c-1.328,0.009 -2.694,0.022 -3.428,-0.824c-3.095,-3.572 -4.988,-7.814 -6.82,-11.915c-0.394,-0.882 -0.787,-1.762 -1.19,-2.634c-0.416,-0.898 -0.454,-1.908 -0.491,-2.885c-0.049,-1.328 -0.092,-2.475 -1.006,-3.182c-20.373,-15.762 -33.833,-26.174 -58.701,-14.678c-9.385,4.339 -17.52,10.057 -25.386,15.589c-14.238,10.009 -27.686,19.464 -47.603,21.048c-2.627,0.209 -5.323,0.474 -7.929,0.731c-10.265,1.014 -20.88,2.06 -30.977,0.078c-3.595,-0.705 -5.802,-3.431 -7.937,-6.066c-1.488,-1.837 -3.025,-3.736 -5.017,-4.923c-15.674,-9.349 -29.341,4.256 -38.385,13.259c-0.98,0.975 -1.89,1.878 -2.742,2.693c10.142,9.566 20.748,24.262 22.865,27.509c1.332,2.043 1.911,4.706 2.471,7.281c0.917,4.219 1.784,8.204 5.761,9.09c13.42,2.99 27.693,2.033 41.496,1.108c8.411,-0.562 17.108,-1.143 25.573,-0.842c13.538,0.489 24.559,1.568 34.684,3.398c2.062,0.373 3.582,1.715 5.052,3.013c0.408,0.361 0.813,0.718 1.225,1.049c1.009,0.811 2.04,1.61 3.072,2.41c3.619,2.804 7.361,5.704 10.217,9.173c1.465,1.779 1.474,4.134 1.359,6.394c-0.065,1.261 -0.098,2.533 -0.132,3.811c-0.134,5.091 -0.273,10.357 -2.431,15.146c-2.824,6.267 -10.335,7.497 -16.962,8.583c-1.715,0.28 -3.328,0.554 -4.83,0.894c-0.16,2.646 -1.284,5.613 -2.383,8.507c-1.407,3.705 -2.735,7.203 -1.71,9.264c0.404,0.814 1.168,1.375 2.336,1.717l0.203,0.058l2.86,5.411c10.133,2.946 21.31,4.684 33.223,5.167c29.21,1.218 31.508,-20.805 33.538,-40.205c0.858,-8.199 1.668,-15.942 4.336,-21.651c0.6,-1.285 2.218,-1.065 3.785,-0.851c1.168,0.159 2.374,0.324 3.038,-0.115c1.701,-1.12 3.038,-3.452 4.33,-5.707c1.983,-3.462 4.034,-7.04 7.37,-5.303c0.52,0.27 1.583,1.731 4.15,5.304c6.986,9.728 21.525,29.968 32.98,32.364c12.887,2.695 23.63,4.333 33.809,5.154c24.118,1.945 25.209,-9.867 26.356,-22.376c0.405,-4.422 0.821,-8.938 2.252,-12.957c-0.016,-3.735 -1.054,-6.551 -3.176,-8.602c-5.227,-5.05 -16.183,-4.673 -27.79,-4.279" id="svg_95"/>
    </g>
    <!-- <title>banqiaoshezuxiang</title> -->
    <g id="svg-zone-banqiao" fill="rgba(61, 175, 255, 0)" fill-rule="nonzero" cursor="pointer">
      <path d="m1299.66092,347.06508c1.282,6.915 11.609,29.967 13.976,34.447c3.254,6.161 7.667,14.232 12.929,22.006c4.017,5.933 10.726,10.785 17.214,15.478c9.211,6.661 18.694,13.526 21.232,23.809c3.861,-0.216 7.616,-0.752 11.251,-1.283c7.771,-1.136 15.112,-2.209 22.983,-0.157c13.055,3.402 22.805,9.413 31.406,14.718c11.928,7.355 22.226,13.703 37.938,12.055c0.003,0 0.005,-0.001 0.007,-0.001l34.807,-51.488l-7.851,-37.748l-11.779,-17.421l-35.334,-29.037l-62.816,-8.711l-47.112,0l-11.779,14.519l-27.009,5.707c-0.117,0.928 -0.198,1.952 -0.063,3.107" id="svg_170"/>
    </g>
    <!-- <title>gushizhen</title> -->
    <g id="svg-zone-gushi" fill="rgba(61, 175, 255, 0)" fill-rule="nonzero" cursor="pointer">
      <path d="m660.70198,213.68514c1.594,0.071 3.231,1.146 4.868,3.197c1.473,1.845 0.863,4.363 0.274,6.798c-0.725,2.993 -1.038,4.882 0.728,5.875c6.549,3.683 8.407,8.432 10.759,14.443c1.719,4.395 3.667,9.375 7.868,15.298c2.73,3.85 4.733,7.275 6.67,10.587c4.774,8.162 8.897,15.211 21.7,23.787c0.001,0.002 0.002,0.002 0.004,0.002c0.556,-0.045 1.118,-0.069 1.686,-0.074c1.985,-1.709 3.342,-8.856 4.447,-14.683c0.838,-4.416 1.629,-8.586 2.64,-10.558c1.576,-3.074 2.711,-6.914 3.81,-10.628c1.287,-4.354 2.619,-8.856 4.704,-12.398c0.588,-0.997 1.35,-2.064 2.158,-3.194c1.613,-2.257 3.281,-4.59 3.787,-6.67c0.237,-0.971 0.439,-2.2 0.654,-3.501c0.574,-3.482 1.224,-7.427 2.933,-9.683c7.35,-9.697 10.05,-12.995 11.067,-14.236c0.557,-0.681 0.557,-0.681 0.592,-0.817c0.148,-0.572 0.541,-2.092 7.223,-13.458c1.513,-2.574 11.413,-25.87 9.269,-30.722c-0.229,-0.518 -0.536,-0.636 -0.747,-0.681c-9.154,-1.923 -18.877,-1.068 -28.28,-0.243c-8.55,0.752 -17.391,1.528 -25.885,0.248c-3.093,-0.465 -3.82,-3.649 -4.462,-6.458c-0.229,-1.004 -0.446,-1.953 -0.754,-2.751c-0.698,-1.816 -0.712,-4.051 -0.726,-6.213c-0.022,-3.605 -0.043,-7.009 -3.163,-8.031c-15.086,-4.94 -40.841,17.291 -53.218,27.975c-1.387,1.199 -2.607,2.25 -3.627,3.104c2.175,0.888 4.36,1.843 6.277,3.132c1.501,1.011 3.221,1.954 5.04,2.953c5.324,2.922 10.829,5.943 11.248,10.978c0.852,10.246 -4.796,19.029 -13.636,26.518l0.21,0.03c-0.072,0.494 -0.226,1.547 -0.288,2.264c0.826,-0.865 2.179,-2.269 4.17,-2.19" id="svg_155"/>
    </g>
    <!-- <title>wangsongjiedao</title> -->
    <g id="svg-zone-wangsong" fill="url(#svg-zone-hover)" fill-rule="nonzero" cursor="pointer">
      <path d="m708.22964,146.46274c0.0132,2.08276 0.0264,4.23689 0.67014,5.89043c0.33811,0.86949 0.56555,1.8576 0.80721,2.903c0.60718,2.6326 1.23468,5.35466 3.69083,5.72055c8.50464,1.27056 17.4205,0.49355 26.04292,-0.25532c9.62153,-0.83632 19.57103,-1.7028 29.01285,0.26135c0.45996,0.09549 1.08948,0.39203 1.47735,1.26152c2.49067,5.57983 -8.28126,29.80598 -9.46415,31.79726c-4.45438,7.50075 -6.88514,11.96481 -7.2263,13.27056c-0.09138,0.35081 -0.132,0.39906 -0.79909,1.20523c-1.02856,1.24443 -3.7619,4.5485 -11.2126,14.28178c-1.58396,2.06869 -2.25003,6.07136 -2.78614,9.28899c-0.22033,1.32585 -0.4295,2.58033 -0.67927,3.59356c-0.56048,2.27877 -2.31096,4.7043 -4.00457,7.05042c-0.80721,1.11777 -1.56873,2.17323 -2.14342,3.13821c-2.05407,3.45284 -3.38723,7.9179 -4.67776,12.23521c-1.12806,3.77852 -2.29471,7.68369 -3.93857,10.85809c-0.9585,1.85157 -1.74845,5.97587 -2.5851,10.34142c-1.14431,5.97286 -2.32415,12.10152 -4.27364,14.67682c4.67268,1.20322 22.95826,11.60294 24.98086,13.04439c1.73728,1.2384 2.03985,5.21796 2.33126,9.06583c0.18378,2.41749 0.35741,4.69928 0.86915,5.68738c1.58497,3.0578 0.90671,6.31362 0.25181,9.46288c-0.54423,2.61551 -1.09354,5.31546 -0.30765,7.83447c7.91675,-2.87485 15.92285,-5.1486 23.67308,-7.34494c15.93605,-4.51633 30.98772,-8.78237 44.60062,-17.77985c8.03554,-5.31144 11.45324,-14.13 15.07198,-23.46623c4.17109,-10.76159 8.48433,-21.89008 20.4351,-27.57244c0.23455,-0.11158 0.45691,-0.17088 0.67318,-0.20204c-4.99556,-11.26721 -13.53168,-11.3235 -21.0829,-11.36672c-6.42722,-0.03619 -12.49906,-0.07036 -14.33178,-7.58921c-0.58789,-2.41246 1.9901,-3.8328 4.48179,-5.2069c1.84592,-1.01625 3.75276,-2.06768 4.38939,-3.45485c1.48242,-3.23169 1.12705,-6.93583 0.78386,-10.51834c-0.0528,-0.55085 -0.10458,-1.09968 -0.15027,-1.64349c-1.21741,-14.46472 -2.90799,-24.49655 -4.26552,-32.55618c-3.64209,-21.61164 -4.6209,-27.42065 14.87804,-60.79004l0.02538,0.01508c2.2277,-2.79745 2.24191,-3.61568 2.24902,-6.47947c0.00102,-0.46038 0.00203,-0.97102 0.0132,-1.54599c-0.47316,0.25532 -1.42658,1.10873 -2.1485,1.75607c-1.91801,1.71687 -4.09088,3.66292 -5.88299,3.69107c-6.8161,0.0965 -13.66875,-0.70565 -20.30919,-1.48668c-6.99582,-0.82325 -14.2272,-1.67365 -21.35704,-1.45049c-41.78808,1.31881 -51.95486,3.93533 -76.51841,10.25397c-2.86433,0.73681 -5.96421,1.53493 -9.34028,2.38733c1.44993,0.06735 2.84706,0.28749 4.165,0.71469c3.86344,1.25247 3.88781,5.20187 3.91116,9.02161" id="svg_135" stroke="null"/>
    </g>
  </g>
  <text pointer-events="none" font-family="MicrosoftYaHei-Bold, Microsoft YaHei" font-size="28" id="svg-zone-text-wangsong" y="274.5" x="723" stroke-width="1" stroke="#000" fill="#ffffff">望松街道</text>
  <text pointer-events="none" font-family="MicrosoftYaHei-Bold, Microsoft YaHei" font-size="28" id="svg-zone-text-chishou" y="101.5" x="606" stroke-width="1" stroke="#000" fill="#ffffff">赤寿乡</text>
  <text pointer-events="none" font-family="MicrosoftYaHei-Bold, Microsoft YaHei" font-size="28" id="svg-zone-text-gushi" y="200.5" x="659" stroke-width="1" stroke="#000" fill="#ffffff">古市镇</text>
  <text pointer-events="none" font-family="MicrosoftYaHei-Bold, Microsoft YaHei" font-size="28" id="svg-zone-text-xinxing" y="282.5" x="325" stroke-width="1" stroke="#000" fill="#ffffff">新兴镇</text>
  <text pointer-events="none" font-family="MicrosoftYaHei-Bold, Microsoft YaHei" font-size="28" id="svg-zone-text-sidu" y="200.5" x="883" stroke-width="1" stroke="#000" fill="#ffffff">四都乡</text>
  <text pointer-events="none" font-family="MicrosoftYaHei-Bold, Microsoft YaHei" font-size="28" id="svg-zone-text-sandu" y="300.5" x="1066" stroke-width="1" stroke="#000" fill="#ffffff">三都乡</text>
  <text pointer-events="none" font-family="MicrosoftYaHei-Bold, Microsoft YaHei" font-size="28" id="svg-zone-text-zhangxi" y="299.5" x="531" stroke-width="1" stroke="#000" fill="#ffffff">樟溪乡</text>
  <text pointer-events="none" font-family="MicrosoftYaHei-Bold, Microsoft YaHei" font-size="28" id="svg-zone-text-zhaitan" y="350.5" x="624" stroke-width="1" stroke="#000" fill="#ffffff">斋坛乡</text>
  <text pointer-events="none" font-family="MicrosoftYaHei-Bold, Microsoft YaHei" font-size="28" id="svg-zone-text-xiping" y="376.5" x="774" stroke-width="1" stroke="#000" fill="#ffffff">西屏街道</text>
  <text pointer-events="none" font-family="MicrosoftYaHei-Bold, Microsoft YaHei" font-size="28" id="svg-zone-text-banqiao" y="394.5" x="1325" stroke-width="1" stroke="#000" fill="#ffffff">板桥畲族乡</text>
  <text pointer-events="none" font-family="MicrosoftYaHei-Bold, Microsoft YaHei" font-size="28" id="svg-zone-text-yecun" y="458.5" x="602" stroke-width="1" stroke="#000" fill="#ffffff">叶村乡</text>
  <text pointer-events="none" font-family="MicrosoftYaHei-Bold, Microsoft YaHei" font-size="28" id="svg-zone-text-yuyan" y="536.5" x="247" stroke-width="1" stroke="#000" fill="#ffffff">玉岩镇</text>
  <text pointer-events="none" font-family="MicrosoftYaHei-Bold, Microsoft YaHei" font-size="28" id="svg-zone-text-shuinan" y="489.5" x="737" stroke-width="1" stroke="#000" fill="#ffffff">水南街道</text>
  <text pointer-events="none" font-family="MicrosoftYaHei-Bold, Microsoft YaHei" font-size="28" id="svg-zone-text-zhuyuan" y="547.5" x="599" stroke-width="1" stroke="#000" fill="#ffffff">竹源乡</text>
  <text pointer-events="none" font-family="MicrosoftYaHei-Bold, Microsoft YaHei" font-size="28" id="svg-zone-text-xiangxi" y="529.5" x="1115" stroke-width="1" stroke="#000" fill="#ffffff">象溪镇</text>
  <text pointer-events="none" font-family="MicrosoftYaHei-Bold, Microsoft YaHei" font-size="28" id="svg-zone-text-yuxi" y="632.5" x="1330" stroke-width="1" stroke="#000" fill="#ffffff">裕溪乡</text>
  <text pointer-events="none" font-family="MicrosoftYaHei-Bold, Microsoft YaHei" font-size="28" id="svg-zone-text-fengping" y="683.5" x="87" stroke-width="1" stroke="#000" fill="#ffffff">枫坪乡</text>
  <text pointer-events="none" font-family="MicrosoftYaHei-Bold, Microsoft YaHei" font-size="28" id="svg-zone-text-anmin" y="791.5" x="417" stroke-width="1" stroke="#000" fill="#ffffff">安民乡</text>
  <text pointer-events="none" font-family="MicrosoftYaHei-Bold, Microsoft YaHei" font-size="28" id="svg-zone-text-dadong" y="721.5" x="785" stroke-width="1" stroke="#000" fill="#ffffff">大东坝镇</text>
</svg>